<svg width="500" height="500" viewBox="0 0 166.516 180.622" xmlns="http://www.w3.org/2000/svg">
    <path
        d="M75.838 178.396c-.967-8.74-2.248-15.866-3.22-17.913-1.368-2.877-3.78-3.378-12.465-2.587-4.06.37-5.954.379-9.294.046-20.37-2.034-35.7-11.27-42.937-25.87-1.987-4.009-3.927-10.956-4.622-16.55-.524-4.22-.196-14.44.714-22.27.577-4.97 5.229-34.425 5.854-37.07.132-.559.445-.793 1.062-.793.853 0 .875.067.875 2.603 0 3.85.664 14.79 1.081 17.825 2.574 18.7 12.472 30.772 29.61 36.112 18.224 5.677 21.975 7.346 26.713 11.889 2.412 2.312 2.854 2.323 1.06.027-2.857-3.658-7.167-6.283-16.916-10.302-2.797-1.154-5.936-2.598-6.976-3.21-11.998-7.063-22.602-23.253-26.67-40.72-.855-3.666-.979-4.93-1-10.173-.02-5.345.067-6.271.808-8.628 2.235-7.108 5.737-12.416 12.906-19.56 8.45-8.422 17.168-14.591 36.227-25.64 3.484-2.02 5.246-3.646 5.246-4.841 0-.488.247-.677.882-.677h.882l.088 18.05c.125 25.551 1.24 26.522-.177 31.288l-.74 3.64H63.31s-.483 5.028-.82 8.914l-.611 7.065-3.132 1.692s-3.472 2.337-5.315 3.481c-7.848 4.875-12.693 9.712-14.59 14.564-2.604 6.661.839 13.788 9.298 19.253 1.262.815 5.27 3.082 8.91 5.038 7.112 3.822 9.808 5.684 12.403 8.565 4.607 5.116 7.163 12.674 7.964 23.557.404 5.482.458 17.779.123 28.088-.21 6.5-.286 7.132-.855 7.132-.499 0-.67-.407-.848-2.025z"
        fill="#f87d9a" />
    <path
        d="M97.177 132.522v-47.9H78.304c-14.865 0-18.873-.093-18.87-.44.001-.242.329-3.769.728-7.837.399-4.068 1.076-11.2 1.505-15.849l.78-8.453 6.517-.219c3.585-.12 11.398-.24 17.363-.264l10.845-.045.091-23.494.09-23.495 17.287-2.202c9.507-1.211 17.485-2.209 17.727-2.216.349-.011.441 5.355.441 25.696v25.711H169.566l-.214 2.025c-.118 1.114-.686 7.731-1.264 14.705-.577 6.973-1.142 13.511-1.256 14.528l-.208 1.85h-33.816v45.785c0 25.183-.087 45.787-.193 45.787-.106 0-8.063.95-17.68 2.113-9.619 1.162-17.549 2.113-17.623 2.113-.074 0-.135-21.555-.135-47.9z"
        fill="#eff8f9" />
</svg>